<mxfile host="app.diagrams.net" modified="2022-10-21T10:44:41.992Z" agent="5.0 (Windows NT 10.0; Win64; x64) AppleWebKit/537.36 (KHTML, like Gecko) Chrome/106.0.0.0 Safari/537.36 Edg/106.0.1370.47" etag="9g0NzyhjNXBT6Ac4kFq4" version="20.3.0" type="github">
  <diagram id="lIIq4QCSVwjix3l61zaa" name="第 1 页">
    <mxGraphModel dx="1375" dy="754" grid="1" gridSize="10" guides="1" tooltips="1" connect="1" arrows="1" fold="1" page="1" pageScale="1" pageWidth="827" pageHeight="1169" math="0" shadow="0">
      <root>
        <mxCell id="0" />
        <mxCell id="1" parent="0" />
        <mxCell id="cQjYCwoOmETKq7b5p8DL-3" value="" style="edgeStyle=orthogonalEdgeStyle;rounded=0;orthogonalLoop=1;jettySize=auto;html=1;" edge="1" parent="1" source="cQjYCwoOmETKq7b5p8DL-1" target="cQjYCwoOmETKq7b5p8DL-2">
          <mxGeometry relative="1" as="geometry" />
        </mxCell>
        <mxCell id="cQjYCwoOmETKq7b5p8DL-5" value="" style="edgeStyle=orthogonalEdgeStyle;rounded=0;orthogonalLoop=1;jettySize=auto;html=1;" edge="1" parent="1" source="cQjYCwoOmETKq7b5p8DL-1" target="cQjYCwoOmETKq7b5p8DL-4">
          <mxGeometry relative="1" as="geometry" />
        </mxCell>
        <mxCell id="cQjYCwoOmETKq7b5p8DL-1" value="f(5)" style="ellipse;whiteSpace=wrap;html=1;aspect=fixed;" vertex="1" parent="1">
          <mxGeometry x="380" y="120" width="50" height="50" as="geometry" />
        </mxCell>
        <mxCell id="cQjYCwoOmETKq7b5p8DL-7" value="" style="edgeStyle=orthogonalEdgeStyle;rounded=0;orthogonalLoop=1;jettySize=auto;html=1;" edge="1" parent="1" source="cQjYCwoOmETKq7b5p8DL-2" target="cQjYCwoOmETKq7b5p8DL-6">
          <mxGeometry relative="1" as="geometry" />
        </mxCell>
        <mxCell id="cQjYCwoOmETKq7b5p8DL-9" value="" style="edgeStyle=orthogonalEdgeStyle;rounded=0;orthogonalLoop=1;jettySize=auto;html=1;" edge="1" parent="1" source="cQjYCwoOmETKq7b5p8DL-2" target="cQjYCwoOmETKq7b5p8DL-8">
          <mxGeometry relative="1" as="geometry" />
        </mxCell>
        <mxCell id="cQjYCwoOmETKq7b5p8DL-2" value="f(4)" style="ellipse;whiteSpace=wrap;html=1;aspect=fixed;" vertex="1" parent="1">
          <mxGeometry x="240" y="190" width="50" height="50" as="geometry" />
        </mxCell>
        <mxCell id="cQjYCwoOmETKq7b5p8DL-11" value="" style="edgeStyle=orthogonalEdgeStyle;rounded=0;orthogonalLoop=1;jettySize=auto;html=1;" edge="1" parent="1" source="cQjYCwoOmETKq7b5p8DL-4" target="cQjYCwoOmETKq7b5p8DL-10">
          <mxGeometry relative="1" as="geometry" />
        </mxCell>
        <mxCell id="cQjYCwoOmETKq7b5p8DL-13" value="" style="edgeStyle=orthogonalEdgeStyle;rounded=0;orthogonalLoop=1;jettySize=auto;html=1;" edge="1" parent="1" source="cQjYCwoOmETKq7b5p8DL-4" target="cQjYCwoOmETKq7b5p8DL-12">
          <mxGeometry relative="1" as="geometry" />
        </mxCell>
        <mxCell id="cQjYCwoOmETKq7b5p8DL-4" value="f(3)" style="ellipse;whiteSpace=wrap;html=1;aspect=fixed;" vertex="1" parent="1">
          <mxGeometry x="540" y="190" width="50" height="50" as="geometry" />
        </mxCell>
        <mxCell id="cQjYCwoOmETKq7b5p8DL-15" value="" style="edgeStyle=orthogonalEdgeStyle;rounded=0;orthogonalLoop=1;jettySize=auto;html=1;" edge="1" parent="1" source="cQjYCwoOmETKq7b5p8DL-6" target="cQjYCwoOmETKq7b5p8DL-14">
          <mxGeometry relative="1" as="geometry" />
        </mxCell>
        <mxCell id="cQjYCwoOmETKq7b5p8DL-17" value="" style="edgeStyle=orthogonalEdgeStyle;rounded=0;orthogonalLoop=1;jettySize=auto;html=1;" edge="1" parent="1" source="cQjYCwoOmETKq7b5p8DL-6" target="cQjYCwoOmETKq7b5p8DL-16">
          <mxGeometry relative="1" as="geometry" />
        </mxCell>
        <mxCell id="cQjYCwoOmETKq7b5p8DL-6" value="f(3)" style="ellipse;whiteSpace=wrap;html=1;aspect=fixed;" vertex="1" parent="1">
          <mxGeometry x="150" y="260" width="50" height="50" as="geometry" />
        </mxCell>
        <mxCell id="cQjYCwoOmETKq7b5p8DL-8" value="f(2)" style="ellipse;whiteSpace=wrap;html=1;aspect=fixed;" vertex="1" parent="1">
          <mxGeometry x="320" y="260" width="50" height="50" as="geometry" />
        </mxCell>
        <mxCell id="cQjYCwoOmETKq7b5p8DL-10" value="f(2)" style="ellipse;whiteSpace=wrap;html=1;aspect=fixed;" vertex="1" parent="1">
          <mxGeometry x="460" y="260" width="50" height="50" as="geometry" />
        </mxCell>
        <mxCell id="cQjYCwoOmETKq7b5p8DL-12" value="f(1)" style="ellipse;whiteSpace=wrap;html=1;aspect=fixed;" vertex="1" parent="1">
          <mxGeometry x="610" y="260" width="50" height="50" as="geometry" />
        </mxCell>
        <mxCell id="cQjYCwoOmETKq7b5p8DL-14" value="f(2)" style="ellipse;whiteSpace=wrap;html=1;aspect=fixed;" vertex="1" parent="1">
          <mxGeometry x="80" y="340" width="50" height="50" as="geometry" />
        </mxCell>
        <mxCell id="cQjYCwoOmETKq7b5p8DL-16" value="f(1)" style="ellipse;whiteSpace=wrap;html=1;aspect=fixed;" vertex="1" parent="1">
          <mxGeometry x="220" y="340" width="50" height="50" as="geometry" />
        </mxCell>
        <mxCell id="cQjYCwoOmETKq7b5p8DL-18" value="" style="endArrow=none;dashed=1;html=1;dashPattern=1 3;strokeWidth=2;rounded=0;" edge="1" parent="1">
          <mxGeometry width="50" height="50" relative="1" as="geometry">
            <mxPoint x="45" y="309" as="sourcePoint" />
            <mxPoint x="765" y="309" as="targetPoint" />
          </mxGeometry>
        </mxCell>
        <mxCell id="cQjYCwoOmETKq7b5p8DL-20" value="" style="shape=curlyBracket;whiteSpace=wrap;html=1;rounded=1;flipH=1;" vertex="1" parent="1">
          <mxGeometry x="670" y="140" width="20" height="150" as="geometry" />
        </mxCell>
        <mxCell id="cQjYCwoOmETKq7b5p8DL-21" value="&lt;font style=&quot;font-size: 19px;&quot;&gt;H-Right = n/2&lt;/font&gt;" style="text;html=1;strokeColor=none;fillColor=none;align=center;verticalAlign=middle;whiteSpace=wrap;rounded=0;" vertex="1" parent="1">
          <mxGeometry x="690" y="210" width="90" height="30" as="geometry" />
        </mxCell>
        <mxCell id="cQjYCwoOmETKq7b5p8DL-23" value="f(n-1)" style="text;html=1;strokeColor=none;fillColor=none;align=center;verticalAlign=middle;whiteSpace=wrap;rounded=0;fontSize=19;" vertex="1" parent="1">
          <mxGeometry x="190" y="170" width="60" height="30" as="geometry" />
        </mxCell>
        <mxCell id="cQjYCwoOmETKq7b5p8DL-24" value="f(n-2)" style="text;html=1;strokeColor=none;fillColor=none;align=center;verticalAlign=middle;whiteSpace=wrap;rounded=0;fontSize=19;" vertex="1" parent="1">
          <mxGeometry x="500" y="170" width="60" height="30" as="geometry" />
        </mxCell>
      </root>
    </mxGraphModel>
  </diagram>
</mxfile>
